#N canvas 1985 148 1172 712 12;
#X obj 730 80 netreceive -u -b 8090;
#X obj 730 130 list trim;
#X obj 723 336 t b;
#X obj 723 361 bng 20 250 50 0 empty empty empty 0 -10 0 12 #fcfcfc #000000 #000000;
#X obj 730 105 oscparse;
#X obj 794 336 t b;
#X obj 794 361 bng 20 250 50 0 empty empty empty 0 -10 0 12 #fcfcfc #000000 #000000;
#X obj 728 212 route 0 1;
#X msg 486 124 \; pd dsp 1;
#X obj 613 54 loadbang;
#X obj 478 352 textfile;
#X obj 479 320 t b a;
#X msg 478 290 read fn_write.txt \, rewind;
#X text 520 262 load filenames to use;
#X msg 723 386 stop;
#X msg 794 386 start;
#X obj 989 310 line;
#X msg 989 279 \$1 \$2;
#X obj 335 636 netsend -u -b;
#X msg 410 580 connect localhost 9020;
#X obj 335 606 oscformat rmt_interp/Position;
#X obj 935 633 netsend -u -b;
#X obj 935 589 oscformat scene/hrtf_rec/zyxeuler;
#X msg 1021 557 connect localhost 9000;
#X msg 934 558 \$1 0 0;
#X obj 631 640 netsend -u -b;
#X msg 706 584 connect localhost 9020;
#X obj 631 610 oscformat sec_path_filter_interp/Position;
#X obj 613 79 t b b b b b;
#X obj 76 505 adc~ 1 2;
#X obj 74 582 writesf~ 2;
#X obj 730 181 route record position track_filter;
#X obj 989 335 t f f f;
#X obj 655 583 spigot;
#X obj 341 562 spigot;
#X obj 1086 268 t f f;
#X obj 729 554 tgl 20 0 empty empty empty 0 -10 0 12 #fcfcfc #000000 #000000 0 1;
#X msg 1085 189 1;
#X msg 1064 152 0;
#X obj 378 537 tgl 20 0 empty empty empty 0 -10 0 12 #fcfcfc #000000 #000000 0 1;
#X obj 1086 243 i;
#X connect 0 0 4 0;
#X connect 1 0 31 0;
#X connect 2 0 3 0;
#X connect 3 0 14 0;
#X connect 4 0 1 0;
#X connect 5 0 6 0;
#X connect 6 0 15 0;
#X connect 7 0 2 0;
#X connect 7 1 5 0;
#X connect 9 0 28 0;
#X connect 10 0 30 0;
#X connect 11 0 10 0;
#X connect 11 1 10 0;
#X connect 12 0 11 0;
#X connect 14 0 30 0;
#X connect 15 0 30 0;
#X connect 16 0 32 0;
#X connect 17 0 16 0;
#X connect 19 0 18 0;
#X connect 20 0 18 0;
#X connect 22 0 21 0;
#X connect 23 0 21 0;
#X connect 24 0 22 0;
#X connect 26 0 25 0;
#X connect 27 0 25 0;
#X connect 28 0 8 0;
#X connect 28 1 12 0;
#X connect 28 2 19 0;
#X connect 28 3 23 0;
#X connect 28 4 26 0;
#X connect 29 0 30 0;
#X connect 29 1 30 1;
#X connect 31 0 7 0;
#X connect 31 1 17 0;
#X connect 31 2 40 0;
#X connect 32 0 34 0;
#X connect 32 1 33 0;
#X connect 32 2 24 0;
#X connect 33 0 27 0;
#X connect 34 0 20 0;
#X connect 35 0 39 0;
#X connect 35 1 36 0;
#X connect 36 0 33 1;
#X connect 37 0 40 0;
#X connect 38 0 40 0;
#X connect 39 0 34 1;
#X connect 40 0 35 0;
