#N canvas 2059 423 1693 909 12;
#X obj 730 130 list trim;
#X obj 723 336 t b;
#X obj 723 361 bng 20 250 50 0 empty empty empty 0 -10 0 12 #fcfcfc #000000 #000000;
#X obj 730 105 oscparse;
#X obj 794 336 t b;
#X obj 794 361 bng 20 250 50 0 empty empty empty 0 -10 0 12 #fcfcfc #000000 #000000;
#X obj 728 212 route 0 1;
#X msg 486 124 \; pd dsp 1;
#X obj 613 54 loadbang;
#X obj 478 352 textfile;
#X obj 479 320 t b a;
#X msg 478 290 read fn_write.txt \, rewind;
#X text 520 262 load filenames to use;
#X msg 723 386 stop;
#X msg 794 386 start;
#X obj 989 310 line;
#X msg 989 279 \$1 \$2;
#X obj 935 633 netsend -u -b;
#X msg 1021 557 connect localhost 9000;
#X msg 934 558 \$1 0 0;
#X obj 561 652 netsend -u -b;
#X obj 613 79 t b b b b b;
#X obj 76 505 adc~ 1 2;
#X obj 74 582 writesf~ 2;
#X obj 989 335 t f f f;
#X obj 730 181 route record position;
#X msg 636 596 connect localhost 9002;
#X obj 730 80 netreceive -u -b 9004;
#X obj 561 622 oscformat /Secondary_path_interpolator/Position;
#X obj 935 589 oscformat /ANC_simulation/hrtf_receiver/pos;
#X connect 0 0 25 0;
#X connect 1 0 2 0;
#X connect 2 0 13 0;
#X connect 3 0 0 0;
#X connect 4 0 5 0;
#X connect 5 0 14 0;
#X connect 6 0 1 0;
#X connect 6 1 4 0;
#X connect 8 0 21 0;
#X connect 9 0 23 0;
#X connect 10 0 9 0;
#X connect 10 1 9 0;
#X connect 11 0 10 0;
#X connect 13 0 23 0;
#X connect 14 0 23 0;
#X connect 15 0 24 0;
#X connect 16 0 15 0;
#X connect 18 0 17 0;
#X connect 19 0 29 0;
#X connect 21 0 7 0;
#X connect 21 1 11 0;
#X connect 21 3 18 0;
#X connect 21 4 26 0;
#X connect 22 0 23 0;
#X connect 22 1 23 1;
#X connect 24 1 28 0;
#X connect 24 2 19 0;
#X connect 25 0 6 0;
#X connect 25 1 16 0;
#X connect 26 0 20 0;
#X connect 27 0 3 0;
#X connect 28 0 20 0;
#X connect 29 0 17 0;
