#N canvas 1920 0 1920 1138 12;
#X obj 125 418 readsf~ 6;
#X obj 60 460 dac~ 1 2 3 4 5 6;
#X obj 188 495 bng 20 250 50 0 empty empty empty 0 -10 0 12 #fcfcfc #000000 #000000;
#X msg 121 360 start;
#X msg 925 183 \; pd dsp 1;
#X msg 109 617 \; pd quit;
#X obj 187 468 del 10;
#X obj 1052 113 loadbang;
#X text 210 319 play input signal;
#X msg 476 637 start;
#X msg 421 640 stop;
#X obj 164 263 t b b b b;
#X text 587 610 record input signal;
#X obj 188 520 t b b b;
#X obj 917 411 textfile;
#X obj 918 379 t b a;
#X msg 917 349 read fn_write.txt \, rewind;
#X obj 711 405 textfile;
#X obj 712 373 t b a;
#X msg 711 343 read fn_read.txt \, rewind;
#X obj 411 695 writesf~ 1;
#X obj 448 103 adc~ 1;
#X obj 1052 138 t b b b b;
#X obj 44 48 netreceive -u -b 9002;
#X obj 183 95 oscparse;
#X msg 221 878 disconnect;
#X obj 182 147 route start;
#X obj 183 120 list trim;
#X msg 182 172 bang;
#X text 228 57 receive start command;
#X text 959 321 load filenames to use;
#X connect 0 0 1 0;
#X connect 0 1 1 1;
#X connect 0 2 1 2;
#X connect 0 3 1 3;
#X connect 0 4 1 4;
#X connect 0 5 1 5;
#X connect 0 6 6 0;
#X connect 2 0 13 0;
#X connect 3 0 0 0;
#X connect 6 0 2 0;
#X connect 7 0 22 0;
#X connect 9 0 20 0;
#X connect 10 0 20 0;
#X connect 11 1 3 0;
#X connect 11 2 9 0;
#X connect 13 0 5 0;
#X connect 13 1 25 0;
#X connect 13 2 10 0;
#X connect 14 0 20 0;
#X connect 15 0 14 0;
#X connect 15 1 14 0;
#X connect 16 0 15 0;
#X connect 17 0 0 0;
#X connect 18 0 17 0;
#X connect 18 1 17 0;
#X connect 19 0 18 0;
#X connect 21 0 20 0;
#X connect 22 0 4 0;
#X connect 22 1 19 0;
#X connect 22 2 16 0;
#X connect 23 0 24 0;
#X connect 24 0 27 0;
#X connect 25 0 23 0;
#X connect 26 0 28 0;
#X connect 27 0 26 0;
#X connect 28 0 11 0;
